<mxfile host="f42830c0-6ed9-462e-a159-023bdac5b737" modified="2020-07-18T04:13:42.783Z" agent="5.0 (Windows NT 10.0; Win64; x64) AppleWebKit/537.36 (KHTML, like Gecko) Code/1.47.2 Chrome/78.0.3904.130 Electron/7.3.2 Safari/537.36" etag="e5XwsDKSqnNCJnamihT5" version="13.1.3">
    <diagram id="6hGFLwfOUW9BJ-s0fimq" name="Page-1">
        <mxGraphModel dx="926" dy="1150" grid="1" gridSize="10" guides="1" tooltips="1" connect="1" arrows="1" fold="1" page="1" pageScale="1" pageWidth="827" pageHeight="1169" math="0" shadow="0">
            <root>
                <mxCell id="0"/>
                <mxCell id="1" parent="0"/>
                <mxCell id="74" value="" style="shape=datastore;whiteSpace=wrap;html=1;" vertex="1" parent="1">
                    <mxGeometry x="500" y="480" width="270" height="210" as="geometry"/>
                </mxCell>
                <mxCell id="43" style="rounded=0;orthogonalLoop=1;jettySize=auto;html=1;edgeStyle=orthogonalEdgeStyle;entryX=0;entryY=0.5;entryDx=0;entryDy=0;" parent="1" source="6" target="64" edge="1">
                    <mxGeometry relative="1" as="geometry">
                        <mxPoint x="120" y="600" as="targetPoint"/>
                        <Array as="points">
                            <mxPoint x="140" y="440"/>
                            <mxPoint x="140" y="585"/>
                        </Array>
                    </mxGeometry>
                </mxCell>
                <mxCell id="6" value="&lt;span&gt;load balancer&lt;/span&gt;" style="rounded=0;whiteSpace=wrap;html=1;" parent="1" vertex="1">
                    <mxGeometry x="30" y="400" width="70" height="130" as="geometry"/>
                </mxCell>
                <mxCell id="17" value="" style="group" parent="1" vertex="1" connectable="0">
                    <mxGeometry x="180" y="145" width="180" height="260" as="geometry"/>
                </mxCell>
                <mxCell id="2" value="" style="rounded=0;whiteSpace=wrap;html=1;" parent="17" vertex="1">
                    <mxGeometry width="180" height="260" as="geometry"/>
                </mxCell>
                <mxCell id="3" value="auth" style="rounded=0;whiteSpace=wrap;html=1;" parent="17" vertex="1">
                    <mxGeometry width="41.53846153846153" height="260" as="geometry"/>
                </mxCell>
                <mxCell id="9" value="post" style="rounded=0;whiteSpace=wrap;html=1;" parent="17" vertex="1">
                    <mxGeometry x="71.99999999999999" y="28.69565217391306" width="80.3076923076923" height="28.695652173913043" as="geometry"/>
                </mxCell>
                <mxCell id="10" value="comment" style="rounded=0;whiteSpace=wrap;html=1;" parent="17" vertex="1">
                    <mxGeometry x="71.99999999999999" y="76.52173913043475" width="80.3076923076923" height="28.695652173913043" as="geometry"/>
                </mxCell>
                <mxCell id="14" value="NF" style="rounded=0;whiteSpace=wrap;html=1;" parent="17" vertex="1">
                    <mxGeometry x="71.23076923076923" y="124.3478260869565" width="80.3076923076923" height="28.695652173913043" as="geometry"/>
                </mxCell>
                <mxCell id="62" value="" style="group;fillColor=none;" parent="17" vertex="1" connectable="0">
                    <mxGeometry x="69.22999999999999" y="170" width="80" height="80" as="geometry"/>
                </mxCell>
                <mxCell id="60" value="session" style="rounded=0;whiteSpace=wrap;html=1;verticalAlign=top;fillColor=#FFB366;" parent="62" vertex="1">
                    <mxGeometry width="80" height="80" as="geometry"/>
                </mxCell>
                <mxCell id="61" value="user&lt;br&gt;42" style="ellipse;whiteSpace=wrap;html=1;aspect=fixed;fillColor=#009900;" parent="62" vertex="1">
                    <mxGeometry x="16.666666666666668" y="26.666666666666664" width="46.66666666666667" height="46.66666666666667" as="geometry"/>
                </mxCell>
                <mxCell id="35" style="edgeStyle=orthogonalEdgeStyle;rounded=0;orthogonalLoop=1;jettySize=auto;html=1;exitX=1;exitY=0.5;exitDx=0;exitDy=0;entryX=0;entryY=0.5;entryDx=0;entryDy=0;" parent="1" source="6" target="3" edge="1">
                    <mxGeometry relative="1" as="geometry">
                        <mxPoint x="100" y="297" as="targetPoint"/>
                        <Array as="points">
                            <mxPoint x="100" y="440"/>
                            <mxPoint x="140" y="440"/>
                            <mxPoint x="140" y="275"/>
                        </Array>
                    </mxGeometry>
                </mxCell>
                <mxCell id="37" value="" style="shape=datastore;whiteSpace=wrap;html=1;" parent="1" vertex="1">
                    <mxGeometry x="500" y="170" width="270" height="210" as="geometry"/>
                </mxCell>
                <mxCell id="45" value="users" style="rounded=0;whiteSpace=wrap;html=1;" parent="1" vertex="1">
                    <mxGeometry x="520" y="260" width="60" height="50" as="geometry"/>
                </mxCell>
                <mxCell id="53" value="post" style="rounded=0;whiteSpace=wrap;html=1;" parent="1" vertex="1">
                    <mxGeometry x="605" y="585" width="60" height="50" as="geometry"/>
                </mxCell>
                <mxCell id="49" value="" style="edgeStyle=orthogonalEdgeStyle;rounded=0;orthogonalLoop=1;jettySize=auto;html=1;" parent="1" source="46" target="48" edge="1">
                    <mxGeometry relative="1" as="geometry"/>
                </mxCell>
                <mxCell id="50" value="" style="edgeStyle=orthogonalEdgeStyle;rounded=0;orthogonalLoop=1;jettySize=auto;html=1;" parent="1" source="46" target="45" edge="1">
                    <mxGeometry relative="1" as="geometry"/>
                </mxCell>
                <mxCell id="46" value="user_roles" style="rounded=0;whiteSpace=wrap;html=1;" parent="1" vertex="1">
                    <mxGeometry x="605" y="260" width="60" height="50" as="geometry"/>
                </mxCell>
                <mxCell id="48" value="roles" style="rounded=0;whiteSpace=wrap;html=1;" parent="1" vertex="1">
                    <mxGeometry x="680" y="260" width="60" height="50" as="geometry"/>
                </mxCell>
                <mxCell id="73" style="edgeStyle=orthogonalEdgeStyle;rounded=0;orthogonalLoop=1;jettySize=auto;html=1;entryX=0;entryY=0.5;entryDx=0;entryDy=0;" edge="1" parent="1" source="2" target="37">
                    <mxGeometry relative="1" as="geometry"/>
                </mxCell>
                <mxCell id="75" style="edgeStyle=orthogonalEdgeStyle;rounded=0;orthogonalLoop=1;jettySize=auto;html=1;entryX=0;entryY=0.5;entryDx=0;entryDy=0;" edge="1" parent="1" source="64" target="74">
                    <mxGeometry relative="1" as="geometry">
                        <Array as="points">
                            <mxPoint x="420" y="585"/>
                            <mxPoint x="420" y="585"/>
                        </Array>
                    </mxGeometry>
                </mxCell>
                <mxCell id="77" value="" style="endArrow=classic;startArrow=classic;html=1;exitX=0.5;exitY=0;exitDx=0;exitDy=0;entryX=0.5;entryY=1;entryDx=0;entryDy=0;" edge="1" parent="1" source="64" target="2">
                    <mxGeometry width="50" height="50" relative="1" as="geometry">
                        <mxPoint x="250" y="455" as="sourcePoint"/>
                        <mxPoint x="300" y="405" as="targetPoint"/>
                    </mxGeometry>
                </mxCell>
                <mxCell id="64" value="" style="rounded=0;whiteSpace=wrap;html=1;" parent="1" vertex="1">
                    <mxGeometry x="180" y="535" width="180" height="100" as="geometry"/>
                </mxCell>
                <mxCell id="66" value="post" style="rounded=0;whiteSpace=wrap;html=1;" parent="1" vertex="1">
                    <mxGeometry x="270" y="569.41" width="80.31" height="31.17" as="geometry"/>
                </mxCell>
                <mxCell id="85" value="session_id" style="text;html=1;align=center;verticalAlign=middle;resizable=0;points=[];autosize=1;" vertex="1" parent="1">
                    <mxGeometry x="189.99999999999997" y="575" width="70" height="20" as="geometry"/>
                </mxCell>
            </root>
        </mxGraphModel>
    </diagram>
</mxfile>